<?xml version="1.0" encoding="UTF-8" standalone="no"?>
<!-- Created with Inkscape (http://www.inkscape.org/) -->

<svg
   xmlns:dc="http://purl.org/dc/elements/1.1/"
   xmlns:cc="http://creativecommons.org/ns#"
   xmlns:rdf="http://www.w3.org/1999/02/22-rdf-syntax-ns#"
   xmlns:svg="http://www.w3.org/2000/svg"
   xmlns="http://www.w3.org/2000/svg"
   xmlns:sodipodi="http://sodipodi.sourceforge.net/DTD/sodipodi-0.dtd"
   xmlns:inkscape="http://www.inkscape.org/namespaces/inkscape"
   width="1400"
   height="1400"
   id="svg4466"
   version="1.1"
   inkscape:version="0.48.4 r9939"
   sodipodi:docname="signet-B-2farbig.svg">
  <defs
     id="defs4468" />
  <sodipodi:namedview
     id="base"
     pagecolor="#ffffff"
     bordercolor="#666666"
     borderopacity="1.0"
     inkscape:pageopacity="0.0"
     inkscape:pageshadow="2"
     inkscape:zoom="0.35000001"
     inkscape:cx="367.39875"
     inkscape:cy="1221.0454"
     inkscape:document-units="px"
     inkscape:current-layer="g4110"
     showgrid="false"
     fit-margin-top="0"
     fit-margin-left="0"
     fit-margin-right="0"
     fit-margin-bottom="0"
     inkscape:window-width="1920"
     inkscape:window-height="1030"
     inkscape:window-x="0"
     inkscape:window-y="0"
     inkscape:window-maximized="1" />
  <metadata
     id="metadata4471">
    <rdf:RDF>
      <cc:Work
         rdf:about="">
        <dc:format>image/svg+xml</dc:format>
        <dc:type
           rdf:resource="http://purl.org/dc/dcmitype/StillImage" />
        <dc:title />
      </cc:Work>
    </rdf:RDF>
  </metadata>
  <g
     inkscape:label="Layer 1"
     inkscape:groupmode="layer"
     id="layer1"
     transform="translate(343.39622,148.78573)">
    <g
       id="g4110"
       transform="matrix(0.97439275,0,0,0.97377474,-3474.1517,-228.71467)">
      <path
         inkscape:connector-curvature="0"
         id="path3000"
         d="m 3897.8247,1519.5002 c -2.2,-0.2032 -11.425,-0.8547 -20.5,-1.4479 -20.2249,-1.3219 -49.8329,-5.0272 -72.5,-9.0731 -127.8536,-22.8208 -244.6399,-78.6818 -344.5,-164.7808 -17.5628,-15.1426 -54.6058,-51.9812 -69.5065,-69.123 -94.5957,-108.8233 -153.3274,-238.4269 -171.976,-379.50009 -4.3828,-33.15468 -5.8098,-56.36617 -5.8098,-94.5 0,-38.1187 1.4261,-61.39412 5.7899,-94.5 18.4081,-139.65047 76.3681,-268.46177 169.4102,-376.5 16.0211,-18.60334 53.4435,-56.04485 72.0922,-72.12898 120.8372,-104.21976 263.6921,-162.99267 424,-174.44068 41.6318,-2.97304 96.2016,-1.21274 141,4.54835 186.0907,23.93128 356.9802,121.93986 473.7503,271.70538 79.3353,101.75286 129.9511,224.01118 145.6541,351.81593 4.1936,34.13051 5.0956,49.9742 5.0956,89.5 0,39.5258 -0.902,55.36949 -5.0956,89.5 -36.5059,297.11649 -256.8194,542.21959 -548.9044,610.66719 -32.6673,7.6553 -68.1115,13.2886 -103.5,16.4496 -15.2237,1.3598 -84.9156,2.6933 -94.5,1.8081 z m 178.95,-240.3548 c -0.5225,-0.5115 -3.1797,-1.8007 -5.9049,-2.8649 -5.212,-2.0351 -7.6062,-4.701 -3.393,-3.778 23.7189,5.1964 57.7524,6.8461 67.0695,3.2511 6.0451,-2.3326 9.7784,-6.6742 9.7784,-11.3716 0,-3.2147 -0.2067,-3.4746 -2.25,-2.8297 -7.6436,2.4124 -10.75,1.3982 -10.75,-3.5095 0,-4.9019 11.308,-16.9927 13.677,-14.6238 0.374,0.374 0.7376,3.2622 0.808,6.4182 l 0.1282,5.7382 5.9434,2.9082 c 6.4179,3.1404 24.1727,9.9332 28.7743,11.0088 2.3361,0.546 2.7727,0.3591 2.4976,-1.0692 -0.5023,-2.6079 -19.4326,-15.1768 -25.5261,-16.9483 -2.896,-0.8419 -5.5002,-1.9105 -5.7871,-2.3748 -2.7386,-4.4311 12.6118,-11.0931 29.0886,-12.6245 5.2056,-0.4838 8.5141,-0.2171 12.8143,1.033 3.1882,0.9268 5.9666,1.5154 6.1741,1.3079 1.2212,-1.2213 2.505,-17.397 1.9238,-24.2411 -1.5954,-18.7861 -6.8908,-31.6808 -17.6586,-43 -18.3012,-19.2382 -48.0111,-23.929 -78.1207,-12.334 l -7.7632,2.9896 -3.0635,-2.5778 c -1.685,-1.4178 -3.5561,-2.5778 -4.1581,-2.5778 -2.7464,0 -5.0986,4.293 -8.8203,16.0976 -3.9672,12.5832 -6.7745,17.9024 -9.4485,17.9024 -0.7544,0 -2.5276,-1.0125 -3.9405,-2.25 l -2.5688,-2.25 3.1318,-8 c 5.368,-13.712 9.7017,-34.5426 11.1305,-53.5 0.3443,-4.5674 1.8404,-3.6815 3.8606,2.2858 3.801,11.2278 14.0425,21.303 24.1868,23.7939 9.0462,2.2213 17.3344,-0.5174 26.9015,-8.8893 4.3608,-3.8161 8.1612,-5.7995 19.37,-10.1094 57.0507,-21.9362 72.1215,-29.4421 87.0364,-43.3478 9.2781,-8.6504 14.7162,-16.6931 17.4156,-25.7571 1.8906,-6.3484 2.7882,-19.9762 1.3157,-19.9762 -0.3724,0 -1.943,1.4625 -3.4903,3.25 -2.7031,3.1229 -2.8706,3.1761 -4.2859,1.3594 -0.81,-1.0399 -2.2099,-5.2039 -3.1108,-9.2535 -0.901,-4.0496 -1.9916,-7.5814 -2.4237,-7.8484 -1.1184,-0.6912 -2.561,1.4011 -3.9593,5.7425 -0.6644,2.0625 -1.5297,3.75 -1.9229,3.75 -0.3933,0 -1.2567,-2.025 -1.9187,-4.5 -1.4663,-5.4823 -3.2942,-5.7811 -7.9228,-1.2949 -3.0027,2.9103 -3.451,3.0609 -4.8743,1.6376 -0.8621,-0.8621 -1.8195,-3.4464 -2.1275,-5.7429 -0.3226,-2.405 -1.0321,-4.028 -1.6733,-3.828 -0.9517,0.2969 -3.9506,5.2606 -4.9128,8.1316 -0.1665,0.4968 -1.5242,0.103 -3.0172,-0.8752 -2.6651,-1.7463 -2.7863,-1.7288 -6.6696,0.9623 -2.8978,2.0082 -4.6398,2.5692 -6.5159,2.0983 -1.8695,-0.4692 -3.4439,0.031 -5.833,1.8533 -4.7294,3.6073 -10.1649,5.6367 -14.9697,5.5891 -2.3073,-0.023 -7.6359,0.2982 -11.8413,0.7136 -8.4191,0.8316 -10.4974,2.0695 -14.032,8.3585 -2.7037,4.8106 -12.7588,9.4368 -18.7614,8.6316 -3.8091,-0.5109 -3.8984,-0.4477 -5.5767,3.9469 -2.0529,5.3756 -3.4231,6.0578 -7.4221,3.6955 -2.404,-1.4201 -3.2994,-1.5394 -4.2696,-0.5693 -0.9701,0.9702 -0.8345,1.9576 0.6467,4.7081 1.7693,3.2853 1.7787,3.5862 0.1678,5.3662 -2.9136,3.2196 -9.8723,4.6004 -16.1285,3.2003 l -5.4063,-1.21 2.7142,-5.0227 c 6.2511,-11.5684 15.9637,-18.6644 37.3344,-27.2768 15.8801,-6.3997 20.9498,-9.0104 28.3797,-14.6141 4.1729,-3.1473 7.7296,-4.5137 21.5,-8.26 21.8879,-5.9547 25.74,-6.699 34.6704,-6.699 7.2687,0 7.9202,0.2011 16.2716,5.0209 7.2059,4.1588 9.8243,5.1259 15.2495,5.6325 5.6792,0.5304 7.2895,0.273 12.1147,-1.936 8.9224,-4.0849 17.0719,-13.8006 24.0879,-28.71739 3.6968,-7.85987 21.3464,-49.8079 28.4006,-67.5 26.699,-66.96207 43.8135,-131.10451 52.1634,-195.5 1.676,-12.925 3.549,-26.97468 4.1624,-31.22151 1.2109,-8.38457 0.6012,-15.4198 -1.5942,-18.39346 -3.2397,-4.38819 -4.4172,1.43446 -8.5171,42.11497 -4.3411,43.07361 -6.507,57.73136 -10.4466,70.69592 -3.8869,12.7911 -7.2029,20.80408 -8.6094,20.80408 -1.3979,0 -1.1625,-3.21834 1.134,-15.5 1.1313,-6.05 2.2705,-12.8 2.5317,-15 l 0.4748,-4 -2.0354,3.68117 c -3.6163,6.54027 -11.7495,32.7944 -16.5174,53.31883 -9.1621,39.43982 -11.558,48.62532 -19.0766,73.13807 -7.381,24.06411 -8.6957,27.46384 -10.0837,26.07581 -1.2495,-1.24948 8.8233,-46.15228 15.1899,-67.71388 6.2448,-21.14911 6.478,-22.20936 7.1223,-32.38646 0.5224,-8.25064 0.3928,-9.81026 -0.7834,-9.42597 -2.2141,0.72339 -5.2989,7.88233 -11.7689,27.31243 -6.045,18.15349 -12.0579,40.51428 -14.1173,52.5 -2.1189,12.33165 -11.3027,38 -13.5959,38 -3.0306,0 -0.3413,-14.58931 6.105,-33.1189 5.8976,-16.95253 10.2558,-42.65795 7.5192,-44.34926 -2.3119,-1.42883 -6.3114,4.04808 -13.1214,17.96816 -11.7483,24.01434 -24.9301,62.61834 -24.9301,73.00971 0,2.42847 -6.7579,22.92286 -10.5095,31.87189 -2.4497,5.84329 -3.9853,3.37874 -2.5078,-4.02469 2.3401,-11.72496 8.1759,-32.99518 12.9659,-47.25769 5.3783,-16.01382 7.5247,-25.40937 5.6722,-24.82805 -1.5088,0.47347 -5.2906,11.89351 -8.1889,24.72883 -2.5168,11.14524 -8.6946,29.60941 -10.9295,32.66582 -0.7364,1.00707 -1.6639,1.50599 -2.0612,1.10871 -1.2007,-1.20069 2.5591,-30.64556 5.1426,-40.27453 4.7803,-17.81656 2.3105,-15.17841 -8.4258,9 -13.9708,31.46258 -16.1586,35.89938 -17.1928,34.86524 -0.6286,-0.62865 0.8,-7.12846 4.0482,-18.41836 8.2895,-28.81222 7.7482,-36.36994 -1.5728,-21.96113 -5.7436,8.87862 -11.2782,20.91046 -15.571,33.84995 -1.8533,5.58628 -3.7254,10.15854 -4.1604,10.16059 -0.4349,0.002 -0.501,-5.05879 -0.1469,-11.24629 0.4405,-7.69643 0.2718,-12.19762 -0.5339,-14.25 -1.1292,-2.87611 -1.2363,-2.92033 -2.5944,-1.0707 -2.1368,2.91003 -6.1606,16.68267 -8.5939,29.41502 -1.3534,7.08151 -2.6863,11.54318 -3.5472,11.87353 -0.7585,0.29104 -1.5807,0.32764 -1.8271,0.0813 -0.2463,-0.24637 -1.341,-7.13098 -2.4324,-15.29913 -1.0915,-8.16815 -2.4758,-15.33467 -3.0763,-15.9256 -2.8942,-2.84829 -5.9683,7.53148 -6.8676,23.18845 -0.3242,5.64457 -1.0395,10.33142 -1.5895,10.41512 -1.0894,0.1659 -3.5854,-4.42966 -8.9225,-16.42798 -3.6747,-8.26103 -5.8684,-9.74529 -7.6147,-5.15212 -0.5432,1.42884 -1.4482,9.41634 -2.011,17.75 -0.5629,8.3337 -1.247,15.7899 -1.5204,16.5693 -0.9244,2.6363 -2.2656,-0.3161 -4.9202,-10.8307 -2.9557,-11.70796 -4.6256,-15.53268 -7.2154,-16.52649 -3.4904,-1.33938 -5.2882,2.77886 -5.3699,12.30079 -0.1356,15.8011 -2.5654,23.4822 -4.0796,12.8964 -0.8908,-6.2273 -4.61,-17.3162 -6.27,-18.69383 -2.3407,-1.94267 -3.6574,1.33695 -6.0789,15.14193 -2.9624,16.8886 -3.3677,18.4422 -5.2101,19.9713 -2.4264,2.0137 -4.6386,-1.727 -9.3088,-15.7412 -2.5365,-7.6112 -4.6295,-12.3832 -5.328,-12.1475 -1.1931,0.4025 -1.2447,2.3443 -0.7452,28.0418 0.1478,7.6062 0,14.1012 -0.3349,14.4333 -1.3509,1.3509 -2.676,-1.8318 -4.0748,-9.7879 -2.3808,-13.5417 -4.2377,-18.9751 -6.4848,-18.9751 -2.8168,0 -4.7868,7.6644 -6.1944,24.0996 -0.8797,10.2709 -0.8931,16.5659 -0.053,25.135 1.6624,16.968 4.6718,22.744 10.285,19.7399 1.1679,-0.6251 2.2157,-0.9875 2.3285,-0.8054 0.7872,1.2705 -1.0848,27.9466 -2.027,28.8856 -0.8654,0.8624 -2.0677,0.8151 -4.8491,-0.1907 -3.4537,-1.2488 -3.8183,-1.1893 -5.5097,0.8994 -0.9961,1.2302 -2.0108,2.2367 -2.2547,2.2367 -0.244,0 -0.7182,-11.8125 -1.0538,-26.25 -0.8598,-36.9812 -4.5256,-64.3125 -11.8111,-88.0589 -5.6097,-18.28437 -19.0419,-53.47953 -29.4827,-77.2512 -9.4213,-21.45021 -36.4495,-75.61086 -45.8816,-91.93999 -3.1769,-5.5 -8.4889,-14.83919 -11.8043,-20.75377 -3.3155,-5.91457 -6.217,-10.56494 -6.4478,-10.33416 -0.2307,0.23078 1.8605,4.55251 4.6472,9.60385 10.5125,19.05548 27.4287,55.81506 38.4723,83.60221 28.8325,72.54595 46.5376,148.31316 52.6216,225.18866 l 1.1322,14.3067 -4.0799,12.1933 c -6.5916,19.6996 -8.0918,19.9556 -5.7173,0.9757 2.2475,-17.9653 2.9905,-34.7434 1.8503,-41.7824 -0.5346,-3.3 -2.1703,-13.875 -3.6349,-23.5001 -3.1505,-20.7033 -5.7429,-33.0494 -13.0183,-62 -2.9716,-11.825 -6.3423,-26.22499 -7.4904,-31.99999 -2.9686,-14.9322 -11.5465,-31.6575 -15.1074,-29.4567 -3.0707,1.89778 -3.3392,6.48911 -3.4769,59.45669 -0.1547,59.4783 -0.1351,59.2775 -7.0202,71.8169 -4.4067,8.0256 -9.0003,14.173 -19.9386,26.6832 -13.9662,15.9732 -16.7036,21.2794 -12.7443,24.7034 3.1991,2.7665 8.4405,3.7966 19.3186,3.7966 l 10.7701,0 7.3703,7.3703 c 20.3671,20.3671 10.866,26.8328 -28.709,19.5372 -13.8021,-2.5444 -36.7213,-8.2497 -42,-10.4552 -10.2262,-4.2725 -18.5537,-13.4617 -22.5712,-24.9071 -1.1497,-3.2751 -3.3804,-13.4001 -4.9573,-22.5 -1.5768,-9.0999 -3.5212,-18.389 -4.3209,-20.6424 -5.1746,-14.5814 -12.9561,-21.1125 -28.4795,-23.9031 -19.7353,-3.5477 -42.4663,-14.9688 -65.6679,-32.9945 -9.4314,-7.3273 -11.5027,-8.5053 -14.9556,-8.5053 -6.4997,0 -27.8942,-10.7831 -37.5476,-18.9245 -2.6994,-2.2766 -3.2296,-3.2248 -2.3182,-4.1454 0.9141,-0.9233 3.6323,-0.06 12,3.8097 5.95,2.7518 13.0682,5.8024 15.8182,6.779 8.2197,2.919 17.9315,8.0889 38.5,20.4945 21.9353,13.23 35.3921,20.2305 44.0951,22.9392 3.2505,1.0116 10.2963,4.3101 15.6574,7.3299 15.4914,8.726 21.9539,11.7156 26.7443,12.3722 4.2105,0.5771 4.6991,0.3849 8.3823,-3.2984 4.317,-4.317 7.1209,-11.7803 7.1209,-18.9539 0,-5.7876 -7.4058,-16.7541 -18.1222,-26.8353 -10.6058,-9.9772 -15.1465,-13.4043 -41.3778,-31.23046 -37.8464,-25.71944 -42.1353,-28.96474 -55.8481,-42.25869 -12.6129,-12.22776 -27.1955,-34.1526 -81.1958,-122.07784 -69.6823,-113.45907 -80.8655,-131.18161 -101.9093,-161.5 -12.4565,-17.94645 -22.7038,-30.5289 -23.3309,-28.64756 -0.4435,1.33048 3.0607,7.64254 14.7935,26.64756 4.7537,7.7 11.9512,19.4 15.9944,26 6.6543,10.86201 38.933,61.88276 50.9291,80.5 8.2378,12.78463 55.2572,87.66287 65.3063,104 20.0005,32.51565 34.2845,58.0368 36.2401,64.75 0.5159,1.77088 0.253,2.25 -1.2345,2.25 -2.1335,0 -15.4591,-13.36158 -22.4395,-22.5 -5.4169,-7.09159 -9.538,-11.10063 -10.4616,-10.17706 -0.9408,0.94079 0.8172,6.32739 7.598,23.28126 5.494,13.7366 6.3951,17.34003 3.9598,15.8349 -0.5282,-0.32643 -4.0562,-5.17128 -7.8401,-10.76631 -3.7839,-5.59503 -8.9768,-12.42279 -11.5399,-15.17279 l -4.6602,-5 2.9299,5.5 c 1.6114,3.025 5.0176,9.0891 7.5693,13.47579 4.7356,8.14089 5.3517,9.966 3.7077,10.98206 -0.5125,0.31673 -6.9223,-4.70096 -14.2441,-11.15042 -9.4462,-8.32083 -13.4034,-11.25337 -13.6259,-10.09784 -0.1725,0.89566 4.0351,8.15564 9.3502,16.1333 8.5583,12.84558 10.2861,16.65711 7.5509,16.65711 -0.4304,0 -5.4406,-4.0204 -11.1338,-8.93421 -10.6417,-9.18498 -14.5047,-11.85986 -15.578,-10.78656 -0.836,0.836 2.2532,5.71546 14.0794,22.23876 16.1229,22.52652 26.4595,43.178 50.0435,99.982 23.105,55.6504 32.4746,75.4446 45.6217,96.3805 23.2794,37.0711 41.9135,54.382 79.3679,73.7317 39.1489,20.2252 72.8816,29.7334 151.5,42.7031 4.9913,0.8234 9.4106,0.6952 8.45,-0.2452 z m 63.05,-47.0154 c -3.473,-1.4214 -5.7929,-4.7515 -5.1353,-7.3715 0.7617,-3.0347 8.975,-10.6831 11.4722,-10.6831 2.0668,0 10.5913,7.063 12.238,10.1399 1.565,2.9243 0.1214,5.8801 -3.6391,7.4514 -3.6553,1.5272 -11.7248,1.7776 -14.9358,0.4633 z m -121.6887,-69.7414 c 0.5605,-3.9377 -3.7385,-5.7001 -12.0251,-4.9299 -3.9256,0.3648 -7.7389,1.1625 -8.4741,1.7727 -3.3444,2.7756 4.7363,5.8061 14.6879,5.5085 4.8343,-0.1446 5.5377,-0.4292 5.8113,-2.3513 z m -32.2422,-0.425 c 0.3779,-0.6115 0.067,-1.5046 -0.691,-1.9847 -1.9342,-1.2251 -9.8781,-1.1216 -9.8781,0.1287 0,2.3681 9.2489,3.9922 10.5691,1.856 z m -24.994,-5.3314 c 0.8413,-3.352 0.012,-4.3218 -4.8092,-5.6199 -2.2824,-0.6145 -6.3008,-2.155 -8.9298,-3.4233 l -4.7801,-2.306 1.3827,2.6462 c 0.7605,1.4554 2.6604,3.8147 4.222,5.2428 7.0746,6.47 11.8386,7.7464 12.9144,3.4602 z m 27.7545,-3.5024 c 7.8357,-1.0099 8.9387,-1.6539 6.2277,-3.6362 -2.3293,-1.7032 -7.7975,-1.7259 -16.4866,-0.069 -13.8263,2.6374 -5.3132,5.7116 10.2589,3.7047 z m -23.4641,-10.7047 c 2.1331,-1.3952 2.2138,-1.699 0.8209,-3.0919 -1.3758,-1.3758 -12.3906,-4.1248 -16.9133,-4.221 -2.1483,-0.046 -5.0208,4.1541 -4.2374,6.1955 0.3195,0.8328 1.5672,2.018 2.7727,2.6339 2.9081,1.4858 14.4974,0.4848 17.5571,-1.5165 z m -24.467,-0.7537 c -0.2964,-0.7723 0.6422,-4.3562 2.0857,-7.9643 2.1321,-5.3294 2.4114,-6.9582 1.4891,-8.6816 -0.6244,-1.1668 -0.9654,-2.2913 -0.7578,-2.4989 0.2076,-0.2077 2.8316,0.2755 5.831,1.0738 10.5485,2.8071 22.7036,1.3131 25.6362,-3.1511 1.2508,-1.904 1.1409,-2.4302 -1.0523,-5.0366 -2.5721,-3.0568 -12.1627,-8.1383 -13.27,-7.031 -0.355,0.3549 -0.067,1.3421 0.6396,2.1937 3.3834,4.0767 -2.2476,2.4959 -23.9166,-6.7142 -7.4537,-3.1681 -11.7567,-4.5125 -12.3964,-3.8728 -2.3237,2.3237 9.5266,19.087 13.493,19.087 0.451,0 0.82,0.4227 0.82,0.9393 0,0.5167 -1.9125,0.8542 -4.25,0.75 l -4.25,-0.1893 0.2173,3.7257 c 0.1195,2.0492 1.1834,5.6492 2.3642,8 3.1714,6.3138 9.0165,13.7992 7.317,9.3703 z m 42.1588,-27.1778 c -1.8957,-1.3861 -5.5573,-1.9593 -5.5573,-0.8699 0,0.8116 6.4169,3.3656 6.9984,2.7854 0.2742,-0.2735 -0.3743,-1.1354 -1.4411,-1.9155 z m 4.5195,-9.0107 c 1.1154,-1.344 0.9465,-2.2997 -1.0832,-6.1256 -5.1095,-9.6315 -20.0651,-22.0496 -35.4406,-29.4273 -8.2705,-3.9685 -8.9627,-4.1354 -11.4284,-2.7567 -1.6557,0.9258 -2.9577,2.8037 -3.527,5.0868 -2.031,8.1454 7.7589,17.8901 27.9024,27.7732 6.6,3.2383 12.9,6.0952 14,6.3489 4.3386,1.0005 8.3096,0.6276 9.5768,-0.8993 z m -24.4965,-10.941 c -2.1039,-0.7233 -5.3933,-2.5866 -7.3098,-4.1408 -3.7278,-3.023 -8.16,-9.7696 -7.1088,-10.8208 0.8388,-0.8388 11.2134,4.9347 16.5883,9.2315 6.4537,5.1592 5.2692,8.2875 -2.1697,5.7301 z m -14.9517,5.0589 c 0.882,-2.2984 -3.2501,-8.0772 -8.5655,-11.9791 -5.9245,-4.349 -7.5221,-4.5414 -6.6106,-0.7963 1.0248,4.2111 5.267,10.1082 8.8375,12.2853 3.8392,2.3409 5.5769,2.4752 6.3386,0.4901 z m 47.9765,-11.3221 c -4.7586,-9.2024 -48.3691,-44.7727 -51.2997,-41.8421 -1.3202,1.3201 3.6314,9.4979 9.6402,15.9214 11.1359,11.9043 34.9481,28.6397 40.8301,28.6957 2.1708,0.021 2.209,-0.1072 0.8294,-2.775 z m 7.3949,-13.0038 c 0,-2.0927 -11.2504,-13.0243 -20.7273,-20.1399 -10.3407,-7.7642 -22.8153,-14.8504 -24.0207,-13.645 -1.2056,1.2056 5.284,12.8368 9.0714,16.2585 2.1296,1.924 6.6405,4.7525 10.0243,6.2856 3.3838,1.5331 9.5066,4.8696 13.6063,7.4143 6.7792,4.208 12.046,5.8811 12.046,3.8265 z m 2,-13.7653 c 0,-1.8363 -2.8552,-4.932 -10.2091,-11.0691 -20.9021,-17.4433 -44.2539,-31.8857 -47.3718,-29.298 -0.7805,0.6477 -1.4191,1.7963 -1.4191,2.5524 0,3.03 7.5335,9.3868 18.7111,15.7885 6.4839,3.7135 17.6389,10.3148 24.7889,14.6697 11.8371,7.2097 15.5,8.9481 15.5,7.3565 z m 5,-13.3445 c 0,-7.0163 -33.7473,-38.4147 -51.1462,-47.5863 -7.5718,-3.99138 -10.6318,-4.33067 -13.993,-1.55153 l -2.3608,1.95193 2,3.4471 c 2.8831,4.9691 10.3773,10.9692 33,26.4209 20.1704,13.7768 28.9549,19.1767 31.25,19.21 0.6875,0.01 1.25,-0.8415 1.25,-1.8921 z m -3.3988,-20.4928 c 1.3104,-3.4149 -8.3393,-17.236 -20.3938,-29.20979 -9.3184,-9.25597 -21.02,-17.70879 -29.1392,-21.04898 -8.2169,-3.38043 -9.755,-3.15144 -10.5529,1.57109 -1.2171,7.2039 0.2628,8.75207 23.9847,25.09268 6.6,4.5463 14.1657,10.2123 16.8127,12.5911 5.1664,4.6431 16.3256,12.4069 17.8327,12.4069 0.5045,0 1.1597,-0.6314 1.4558,-1.403 z m 1.3988,-24.9402 c 0,-5.48235 -18.5214,-27.40166 -32.7632,-38.77394 -8.9283,-7.12934 -19.4348,-13.12783 -21.5632,-12.31109 -0.8665,0.33252 -2.3555,2.64684 -3.3087,5.14293 -1.5376,4.02602 -1.5696,4.83451 -0.284,7.16183 1.4823,2.68328 16.4408,13.1627 25.4191,17.80775 2.75,1.42275 7.6388,5.02458 10.864,8.00407 7.6495,7.06664 18.5726,15.31165 20.2851,15.31165 0.7502,0 1.3509,-1.042 1.3509,-2.3432 z m -1,-20.54284 c 0,-5.39312 -20.0401,-28.53465 -32.9458,-38.04463 -7.6059,-5.60459 -16.7027,-10.40457 -18.0917,-9.54615 -1.8964,1.17208 -0.91,6.24925 1.9928,10.25636 1.6254,2.24379 7.5879,7.56522 13.25,11.82541 5.6621,4.26019 13.3487,10.59946 17.0813,14.08727 7.7778,7.26761 15.6387,13.24681 17.4634,13.283 0.6875,0.0136 1.25,-0.82393 1.25,-1.86126 z m 1,-16.64719 c 0,-6.88375 -22.2668,-37.61241 -39.3471,-54.29973 -11.6012,-11.33437 -13.0141,-11.56074 -13.4621,-2.15699 -0.1701,3.56948 -0.03,7.99286 0.3122,9.82973 0.8616,4.63131 7.3992,11.37323 15.1707,15.64498 4.8171,2.64781 10.1675,7.32529 20.6633,18.06422 13.5757,13.89026 16.663,16.2837 16.663,12.91779 z m -1.1166,-21.68457 c -6.368,-11.8988 -49.8003,-71.78219 -52.0622,-71.78219 -1.9046,0 -0.3069,17.12757 2.0238,21.69618 1.148,2.25023 5.2976,6.60893 9.8214,10.31635 11.0714,9.07331 21.0672,18.8064 23.5684,22.94901 2.6684,4.41949 15.6502,19.03846 16.9063,19.03846 0.5111,0 0.3952,-0.99801 -0.2577,-2.21781 z m 20.7991,-4.03219 c -0.3241,-2.3375 -2.4549,-10.07524 -4.7351,-17.19498 -8.1322,-25.39192 -19.4985,-50.53783 -28.5406,-63.14064 -3.337,-4.6511 -5.8348,-9.36211 -6.4725,-12.20762 -3.6635,-16.34741 -23.0883,-52.35171 -48.6009,-90.08303 -19.3234,-28.578 -44.7813,-63.11623 -47.0834,-63.8772 -3.9557,-1.3076 1.5849,12.01914 10.3564,24.9098 4.018,5.90496 8.5087,13.12295 9.9794,16.03998 1.4706,2.91703 5.5262,8.96671 9.0124,13.44373 27.5163,35.33632 44.6634,66.91522 93.5858,172.35152 11.8695,25.58085 13.7092,28.48916 12.4985,19.75844 z m -317.7663,-2.47583 c -3.0856,-3.99949 -15.0862,-18.60552 -42.6216,-51.87515 -80.5466,-97.3206 -125.7834,-152.91385 -150.6579,-185.14902 -15.4756,-20.0551 -17.1254,-20.43657 -8.3236,-1.92455 12.8099,26.94182 31.2612,54.21611 64.0081,94.61528 44.3076,54.66149 102.8437,117.86187 131.0252,141.46565 6.4712,5.4201 9.5889,6.78097 6.5698,2.86779 z m 286.5799,-25.26777 c 1.6494,-2.66889 -42.9502,-64.88562 -45.0253,-62.81052 -1.4314,1.43138 4.2798,14.11507 10.267,22.80132 7.0064,10.16507 24.9204,33.71044 29.1037,38.2528 2.6279,2.85342 4.5983,3.46545 5.6546,1.7564 z m -15.5368,-44.26654 c -14.161,-25.98927 -34.1141,-52.98509 -37.0167,-50.08243 -2.6302,2.63016 3.3015,15.82352 12.8172,28.50845 9.6354,12.84445 30.6289,37.16797 31.0331,35.95551 0.2093,-0.62792 -2.8658,-7.09961 -6.8336,-14.38153 z m -20.9593,-47.2731 c 0,-0.84329 -1.1805,-3.88079 -2.6234,-6.75 -4.4562,-8.86128 -28.6025,-48.71676 -29.5148,-48.71676 -1.6658,0 -0.8268,4.18077 2.7681,13.79367 7.5042,20.06668 10.702,25.76624 19.532,34.81264 8.3353,8.53962 9.8381,9.58757 9.8381,6.86045 z m -0.7708,-48.66416 c -1.0994,-1.81643 -3.6902,-6.4526 -5.7572,-10.3026 -13.1622,-24.51581 -39.0131,-64.97469 -55.5205,-86.89462 -4.0983,-5.44204 -8.1192,-10.84204 -8.9353,-12 -0.8162,-1.15796 -7.7784,-10.20538 -15.4718,-20.10538 -30.3685,-39.07919 -47.5444,-58.9087 -47.5444,-54.88998 0,3.3122 23.1153,36.17293 36.8529,52.38998 7.8102,9.21993 18.2421,23.05884 28.0686,37.23561 3.5319,5.09541 10.7662,14.88939 16.0762,21.76439 17.4384,22.57775 42.3526,58.2653 50.4707,72.29517 1.526,2.63735 2.9963,4.57352 3.2672,4.3026 0.2709,-0.27091 -0.407,-1.97874 -1.5064,-3.79517 z m -37.8422,-111.75964 c 2.8825,-1.09592 5.613,-5.73343 5.613,-9.53314 0,-4.45653 3.6794,-10.06993 10.5852,-16.14923 13.0565,-11.49386 18.4148,-16.68167 18.4148,-17.82893 0,-1.62002 -11.4386,-8.23839 -17.6189,-10.19428 -2.9151,-0.92253 -6.2438,-1.33767 -7.7317,-0.96424 -4.3982,1.10388 -9.2414,6.27259 -13.4813,14.38745 -2.2241,4.25668 -5.1081,9.16909 -6.4088,10.91648 -3.8368,5.15427 -11.8409,11.19117 -18.0093,13.58307 -3.1625,1.22632 -5.75,2.7132 -5.75,3.30416 0,1.2831 7.4996,11.49936 9.2644,12.62025 1.7605,1.11822 22.1107,1.00353 25.1226,-0.14159 z m -51.9625,-0.92077 c 0.2984,-0.48279 -1.0077,-2.90801 -2.9023,-5.38936 l -3.4448,-4.51156 -10.0387,-0.61063 c -5.5213,-0.33585 -14.4624,-0.87872 -19.8692,-1.20638 l -9.8306,-0.59574 -2.7171,3.22909 c -5.5211,6.56147 -2.9377,7.60734 21.8782,8.85718 23.3165,1.17433 26.3236,1.19972 26.9245,0.2274 z m 81.8152,-13.13975 c 16.7976,-10.55206 20.363,-13.74883 24.106,-21.61306 1.5364,-3.22816 3.3401,-6.9912 4.0083,-8.3623 3.0704,-6.30097 7.4398,-1.49525 5.6962,6.26505 -1.0719,4.77061 -1.0555,4.80188 3.2483,6.19302 2.4723,0.79915 3.2015,1.60426 3.2015,3.53485 0,2.15593 -0.5505,2.57768 -4,3.06445 -3.8559,0.54411 -10.111,3.39792 -13.75,6.27327 -3.1046,2.45313 -2.0476,4.40782 3.5,6.4724 14.3935,5.35662 30.6529,5.65893 41.4471,0.77064 6.1867,-2.80167 10.1598,-5.96159 8.6181,-6.85407 -0.4484,-0.25952 -2.9159,-0.77625 -5.4834,-1.14829 -2.5675,-0.37203 -5.249,-1.37625 -5.9589,-2.23159 -0.7099,-0.85534 -2.3795,-1.96912 -3.7102,-2.47507 -2.1569,-0.82004 -2.3602,-1.36217 -1.8731,-4.99411 0.8021,-5.97973 3.9663,-8.87763 9.6936,-8.87763 2.549,0 5.5081,0.66069 6.5757,1.4682 4.2084,3.18307 4.6584,0.7874 0.8929,-4.75395 -5.2517,-7.72853 -16.188,-11.75526 -22.2312,-8.18546 -4.1904,2.47533 -6.5786,1.36406 -5.9707,-2.77824 0.4062,-2.76763 -0.2533,-4.0637 -4.6382,-9.11471 -8.9313,-10.28814 -29.3995,-24.60806 -47.4195,-33.17556 -14.6064,-6.94451 -27.3853,-14.8113 -32.7114,-20.13741 -2.3259,-2.32586 -7.0275,-8.78302 -10.4481,-14.34926 -3.4206,-5.56623 -6.4175,-9.92209 -6.6599,-9.67968 -0.2425,0.24241 1.8245,5.07305 4.5932,10.73476 2.7687,5.6617 5.05,11.6839 5.0695,13.38266 0.019,1.69876 0.6785,4.21365 1.4645,5.58865 2.6043,4.55568 1.4138,10 -2.1866,10 -0.7076,0 -1.9671,-1.62878 -2.7989,-3.61952 l -1.5123,-3.61952 -3.4344,2.61952 c -1.8889,1.44074 -3.9521,2.61952 -4.5849,2.61952 -0.6328,0 -7.3003,-3.76829 -14.8167,-8.37399 -7.5164,-4.60569 -15.4933,-9.29628 -17.7265,-10.42353 -2.2331,-1.12725 -7.8581,-4.87006 -12.5,-8.31735 -9.4509,-7.01882 -15.747,-10.8551 -17.8447,-10.87308 -2.9944,-0.0257 2.9079,4.53138 23.905,18.45683 38.369,25.44666 42.0255,28.60567 56.1427,48.50437 l 8.8872,12.52675 10.735,0 c 10.1375,0 11.1425,0.19092 18.0539,3.42976 4.0254,1.88637 8.1108,4.43654 9.0787,5.66704 0.9679,1.23051 3.0744,2.38712 4.6812,2.57024 2.3548,0.26839 2.9835,0.87446 3.2418,3.12535 0.2671,2.32662 -0.9005,4.00967 -7,10.09017 -4.0263,4.01378 -9.8362,8.96076 -12.911,10.99328 -4.6911,3.10101 -6.1792,4.87074 -9.25,11.00114 -2.0127,4.01809 -3.6595,7.84287 -3.6595,8.49951 0,1.52648 0.4376,1.28912 18.2397,-9.89405 z M 3679.8247,590.2479 c 8.9466,-3.16817 11.3307,-3.58655 22.6316,-3.97146 9.7006,-0.33041 14.5735,-0.0117 21,1.37327 4.6026,0.99193 10.1629,1.83098 12.3562,1.86455 l 3.9877,0.0611 0.7271,-6 c 0.406,-3.35112 2.131,-8.93612 3.9073,-12.65063 3.4334,-7.17969 3.317,-9.84937 -0.4293,-9.84937 -5.2376,0 -8.4669,2.1082 -12.7331,8.31263 -5.6034,8.14922 -10.9243,13.68732 -13.1504,13.68732 -2.3911,0 -2.2723,-0.83643 0.751,-5.28556 1.4014,-2.06241 2.2749,-4.19187 1.941,-4.73214 -0.8832,-1.42895 -9.9312,-1.1717 -17.8581,0.50773 -12.938,2.74113 -21.759,6.80082 -31.49,14.49273 -4.9993,3.95171 -7.1702,8.10097 -3.391,6.48114 0.9625,-0.41254 6.25,-2.34363 11.75,-4.29131 z m 324.2292,1.22324 c -0.3323,-0.33229 -1.1948,-0.36781 -1.9167,-0.0789 -0.7977,0.31922 -0.5608,0.55618 0.6042,0.60416 1.0541,0.0434 1.6448,-0.19293 1.3125,-0.52522 z m -0.4406,-8.64581 c 9.5664,-8.28755 13.4478,-13.79201 14.2494,-20.20809 0.8553,-6.84533 2.5951,-9.51373 5.1534,-7.90381 3.5495,2.23366 1.2314,16.44841 -3.8449,23.57742 l -2.1955,3.08339 3.2539,2.9074 c 1.7897,1.59907 3.7783,2.7326 4.4193,2.51896 2.8628,-0.95429 3.5467,-10.68226 2.6108,-37.13928 -1.7524,-49.54108 -3.3121,-62.95857 -9.9917,-85.95139 -1.1399,-3.92404 -2.2988,-7.92212 -2.5753,-8.88462 -0.8177,-2.84643 -2.2013,-2.0118 -3.3154,2 -1.3214,4.75813 -1.3459,15.9339 -0.063,28.75 3.3389,33.35437 4.1243,46.36315 3.0416,50.38369 -0.6096,2.26397 -1.541,4.17256 -2.0698,4.24131 -0.5288,0.0688 -1.374,0.18125 -1.8782,0.25 -1.663,0.22678 -2.5702,1.7119 -3.6311,5.94455 -0.8536,3.4055 -1.4781,4.18045 -3.3688,4.18045 -1.7703,0 -2.5893,-0.83027 -3.4522,-3.5 -0.6275,-1.94168 -1.799,-3.5 -2.6312,-3.5 -1.2208,0 -1.4514,1.36625 -1.2389,7.34071 0.2389,6.71461 0.083,7.38729 -1.8267,7.8867 -1.1483,0.30029 -2.4922,1.60947 -2.9864,2.90928 -0.6629,1.74372 -1.6682,2.36331 -3.8343,2.36331 -2.0507,0 -3.7164,0.92763 -5.5248,3.07673 -3.6743,4.36662 -3.3541,7.12098 1.1941,10.27291 2.0807,1.4419 5.547,4.42811 7.703,6.636 2.1559,2.2079 4.555,4.01436 5.3312,4.01436 0.7762,0 4.1383,-2.36249 7.4714,-5.24998 z m -371.2886,-77.75002 c 0,-3.01357 -7.7967,-6.97967 -13.75,-6.99442 -3.7394,-0.009 -2.5286,1.8425 2,3.05879 2.3375,0.6278 5.375,1.98089 6.75,3.00686 2.7587,2.0584 5,2.47474 5,0.92877 z m 89.4648,-2 c 2.5188,0 1.738,-2.91101 -0.9625,-3.58879 -4.4407,-1.11454 -7.5156,1.50566 -6.0991,5.19712 0.5671,1.47778 0.8164,1.47778 3.0718,0 1.3501,-0.88458 3.1455,-1.60833 3.9898,-1.60833 z m 35.2942,1.75 c -0.8068,-2.47335 -20.8328,-5.05756 -22.189,-2.86331 -1.479,2.39309 3.3949,3.53822 16.7633,3.9386 4.2765,0.12808 5.7246,-0.15891 5.4257,-1.07529 z m -27.6552,-7.0462 c -1.2835,-1.28349 -2.585,-0.2915 -1.6348,1.24598 0.3681,0.59556 1.1273,0.79971 1.6872,0.45366 0.683,-0.42212 0.6658,-0.98146 -0.052,-1.69964 z m -0.2931,-9.39633 c 0.5888,-4.11654 -5.0209,-12.52936 -19.7992,-29.69257 -4.6813,-5.4368 -9.5588,-11.17709 -10.8388,-12.7562 -2.5745,-3.17595 -7.0151,-6.09875 -5.6343,-3.70847 0.4288,0.74237 2.2248,3.37477 3.991,5.84977 1.7663,2.475 7.5749,12.02294 12.9082,21.21764 9.4921,16.36476 14.2016,22.18757 17.4458,21.56979 0.8891,-0.16932 1.7564,-1.28531 1.9273,-2.47996 z m -132.8107,-30.30747 c 0,-0.55 -0.45,-1 -1,-1 -0.55,0 -1,0.45 -1,1 0,0.55 0.45,1 1,1 0.55,0 1,-0.45 1,-1 z m 29.453,-5.16052 c 1.4008,-0.63828 2.547,-1.82253 2.547,-2.63166 0,-1.14631 -0.91,-1.3491 -4.1211,-0.9184 -4.9188,0.65975 -7.0958,2.33005 -4.8705,3.73691 1.976,1.24927 3.3821,1.2085 6.4446,-0.18685 z m 167.5755,-34.85388 c 3.2843,-1.65791 5.9715,-3.23296 5.9715,-3.5001 0,-0.26713 -2.9141,-0.40541 -6.4758,-0.30728 l -6.4759,0.17843 -10.2741,-9.93247 c -14.2546,-13.78051 -23.7742,-19.97809 -23.7742,-15.4778 0,0.45559 3.1238,3.35228 6.9419,6.4371 3.818,3.08481 10.8176,10.1105 15.5548,15.61264 5.496,6.38356 9.3272,10.00388 10.5866,10.00388 1.0856,0 4.6609,-1.35648 7.9452,-3.0144 z m -127.0008,-28.5687 c 2.6643,-8.00631 7.5323,-13.4169 12.0714,-13.4169 3.389,0 6.9009,-1.55434 6.9009,-3.05424 0,-2.00979 -19.9973,4.28877 -22.5413,7.09986 -1.493,1.64979 -1.614,2.54159 -0.734,5.40903 1.0361,3.376 0.7966,4.54535 -0.9309,4.54535 -0.4801,0 -3.9873,-2.925 -7.7938,-6.5 -7.3908,-6.94136 -8.4391,-7.28377 -17.4179,-5.68876 -5.4447,0.96722 -5.6229,2.84397 -0.3968,4.17924 11.8808,3.03554 14.7216,4.35151 20.7576,9.61574 3.416,2.97921 6.5913,5.18168 7.0561,4.8944 0.4649,-0.28729 1.8278,-3.47496 3.0287,-7.08372 z"
         style="fill:#87ceeb;fill-opacity:1" />
      <path
         inkscape:connector-curvature="0"
         id="path2998"
         d="m 4070.3247,1289.0313 c -20.95,-1.8862 -45.3901,-7.6303 -81,-19.0371 -12.375,-3.9641 -30.3676,-9.6377 -39.9835,-12.6081 -37.339,-11.5338 -57.2976,-23.3507 -83.1005,-49.2015 -15.9482,-15.9778 -28.7723,-32.7179 -41.6018,-54.3054 -12.7725,-21.4917 -31.5117,-58.4328 -35.6631,-70.3038 -4.6781,-13.3771 -7.8729,-20.9857 -13.6226,-32.4433 -18.9897,-37.8414 -60.3187,-96.75782 -83.1658,-118.55679 -61.7596,-58.92621 -114.0718,-120.07074 -171.5379,-200.5 -9.741,-13.63351 -20.1402,-36.20614 -24.5642,-53.31977 -3.2162,-12.44126 -1.2514,-14.67292 6.9818,-7.93023 13.9307,11.40862 53.8805,59.84417 131.7624,159.75 47.3248,60.70762 54.7768,69.94359 67.0998,83.16337 16.8537,18.08019 21.7278,19.07892 30.0149,6.1502 5.6384,-8.79648 9.1933,-11.12419 15.7516,-10.31418 l 4.8712,0.60163 -0.7134,-4.75687 c -0.3923,-2.61628 -1.8246,-8.60151 -3.1829,-13.30051 -10.4137,-36.02698 -41.4885,-92.33531 -96.325,-174.54364 -31.4528,-47.15261 -49.5598,-77.64231 -52.0491,-87.64386 -1.3063,-5.24844 -0.153,-8.85614 2.8312,-8.85614 4.4821,0 14.1181,8.44127 25.1137,22 17.7474,21.88428 28.7999,39.05769 84.6309,131.5 59.1033,97.8604 85.2382,136.64655 116.2767,172.5636 13.5477,15.67715 24.5472,25.65923 45.6756,41.45101 9.9,7.39943 22.725,17.08148 28.5,21.51568 12.3082,9.4506 26.0117,18.6588 30.6545,20.5987 1.8047,0.7541 4.4819,1.371 5.9493,1.371 2.9413,0 2.931,0.3296 0.4224,-13.5 -2.3324,-12.8582 -0.6608,-33.425 5.5676,-68.49999 2.0234,-11.39495 2.6911,-19.129 3.1183,-36.11655 0.9574,-38.07863 -3.247,-65.32351 -17.8597,-115.72969 -9.3517,-32.25863 -19.2708,-55.06776 -32.6824,-75.15376 -7.1605,-10.72394 -7.6959,-12.06867 -14.1304,-35.49445 -1.2077,-4.39694 -3.8482,-11.14694 -5.8677,-15 l -3.6719,-7.00555 -18.5,-1.16458 c -20.4612,-1.28805 -31.722,-2.80406 -36.9634,-4.97632 -3.7619,-1.55908 -7.0366,-4.14518 -7.0366,-5.55693 0,-0.48832 2.0503,-3.07975 4.5562,-5.75874 6.8979,-7.37445 11.3994,-8.06043 35.1938,-5.36319 3.7772,0.42817 5.25,0.25454 5.25,-0.61889 0,-0.66771 -4.3959,-6.69217 -9.7687,-13.38768 -18.1005,-22.55668 -23.1617,-31.68951 -23.9753,-43.26296 -0.4829,-6.86904 0.7496,-11.94853 2.7228,-11.22148 1.0729,0.39533 33.7876,39.8339 45.5411,54.90123 4.8951,6.27525 9.3681,11.76336 9.9401,12.1958 2.8693,2.16927 17.3558,-3.41867 22.3526,-8.62215 5.0262,-5.23424 11.5207,-18.30464 11.5207,-23.18588 0,-4.80537 -3.6348,-11.98159 -11.4298,-22.5654 -12.0399,-16.34758 -40.5235,-39.39604 -72.7234,-58.84662 -6.7685,-4.08859 -12.7438,-8.25109 -13.2784,-9.25 -1.0071,-1.88177 0.296,-5.56702 2.498,-7.06444 2.4954,-1.69689 10.8363,1.59495 19.4399,7.67221 2.5632,1.81056 9.6104,6.09868 15.6604,9.52918 6.05,3.43049 12.6611,7.54441 14.6914,9.14205 4.4659,3.51432 8.3433,3.71606 14.1105,0.73417 2.309,-1.19384 4.8697,-2.47824 5.6906,-2.85423 0.8208,-0.37599 1.8966,-2.09265 2.3905,-3.81479 0.8044,-2.80488 0.2205,-4.30502 -5.6031,-14.39576 -3.5756,-6.19553 -7.4376,-13.40014 -8.5823,-16.01024 -1.1447,-2.6101 -3.9074,-7.29585 -6.1394,-10.41279 -3.9939,-5.57742 -4.6523,-7.62988 -3.4512,-10.75978 0.9327,-2.43069 3.9748,-1.88787 7.6873,1.37169 7.7057,6.76576 25.6185,31.81804 34.2938,47.96235 6.1837,11.5075 17.7419,20.44545 38.2548,29.58241 5.3114,2.36584 12.3571,5.93987 15.6571,7.9423 6.7013,4.06631 6.6393,4.08573 10.7205,-3.36058 0.9462,-1.72648 3.0824,-3.91326 4.747,-4.85951 1.6928,-0.96228 3.4851,-3.09938 4.0672,-4.84953 0.5723,-1.721 1.9237,-3.92824 3.003,-4.90499 1.2147,-1.09933 1.9623,-3.06758 1.9623,-5.16637 0,-2.30814 0.8208,-4.21121 2.571,-5.96147 2.1965,-2.19647 3.1461,-2.47905 6.5185,-1.93977 l 3.9475,0.63124 3.5848,-7.76478 3.5848,-7.76478 -0.5715,-12 c -0.3144,-6.6 -1.2294,-16.95 -2.0335,-23 -2.3894,-17.97865 -2.6628,-23.45597 -1.7256,-34.57472 1.1413,-13.54017 3.889,-19.10391 8.551,-17.31492 2.3771,0.91219 5.6566,9.17734 9.1825,23.14259 7.1923,28.48711 9.9604,60.36642 9.0952,104.74705 -0.3109,15.95 -0.854,29.7463 -1.2069,30.65844 -0.8079,2.0887 -4.5795,3.58197 -10.9978,4.35434 -14.6253,1.76001 -19.8932,5.10388 -8.4482,5.36259 7.2179,0.16316 12.3169,2.49329 18.0905,8.26696 5.2721,5.27202 7.7354,11.019 8.8291,20.59852 0.4872,4.26753 1.3847,9.06993 1.9944,10.67199 1.476,3.87838 0.089,5.26678 -3.6951,3.69929 -2.549,-1.05585 -3.844,-0.7077 -12.6175,3.39217 -19.0404,8.89762 -29.2039,9.5637 -46.9528,3.07711 -14.7061,-5.37456 -19.1821,-4.79277 -30.2004,3.9255 -9.707,7.68067 -16.5677,10.89844 -21.3128,9.99597 -2.028,-0.38569 -8.584,-0.91077 -14.569,-1.16685 -8.9475,-0.38284 -10.7883,-0.22163 -10.3552,0.9069 0.2897,0.75487 3.573,5.59895 7.2962,10.76462 18.5331,25.71293 47.3318,71.92329 74.157,118.99245 40.6271,71.28667 69.5197,133.65914 91.3716,197.24985 2.9767,8.66244 5.8864,15.74994 6.466,15.75004 0.5797,0 2.5927,-1.5875 4.4734,-3.528 7.6459,-7.88847 21.9949,-15.29987 33.7479,-17.43111 5.8868,-1.06747 9.0845,-0.74926 14.4139,1.43435 1.3592,0.55688 1.8205,-0.0567 2.3623,-3.14155 0.8299,-4.72579 2.9975,-8.33358 5.007,-8.33358 0.8316,0 2.516,0.65779 3.743,1.46176 2.0661,1.35376 2.5468,1.21178 6.5067,-1.9218 2.3517,-1.86096 13.8195,-8.88075 25.4839,-15.59953 24.9252,-14.35701 42.4493,-25.62901 59.7081,-38.40579 6.875,-5.0896 14.975,-10.37666 18,-11.74901 11.1053,-5.03816 21.8882,-15.16913 31.7023,-29.78563 1.6618,-2.475 7.8834,-12.825 13.8258,-23 12.5667,-21.51788 19.0379,-31.03584 27.2103,-40.02144 8.2306,-9.04957 11.6847,-14.43606 15.8,-24.63926 4.8755,-12.08803 8.5538,-26.53171 13.9655,-54.8393 6.592,-34.48058 10.2179,-51.61889 13.0586,-61.72238 2.7879,-9.9156 7.7669,-23.01995 10.1451,-26.70099 1.5026,-2.32566 1.6207,-2.34819 2.929,-0.55887 1.6423,2.24588 1.8204,20.29607 0.3058,30.98224 -1.53,10.79489 -1.6006,11.64149 -2.8224,33.81979 -1.3839,25.11894 -1.9869,29.59596 -7.0581,52.40093 -19.21,86.38541 -36.1102,142.24849 -58.6239,193.77928 -6.2739,14.35991 -19.5686,40.37299 -27.1258,53.07519 -5.2143,8.7644 -6.2181,11.3014 -7.7155,19.5 -3.0578,16.742 -9.2794,32.0186 -18.0925,44.4248 -5.3209,7.4903 -20.0374,21.7504 -28.0895,27.2185 -15.2228,10.3376 -38.0566,20.3715 -61.0329,26.8199 -7.085,1.9884 -13.2099,3.9314 -13.611,4.3177 -0.4011,0.3864 2.8585,3.0999 7.2435,6.03 20.9319,13.9869 37.496,35.2797 42.4541,54.5741 3.1963,12.4383 1.0142,32.0175 -4.2997,38.5799 -1.7667,2.1818 -1.8103,1.8399 -1.7422,-13.6511 0.061,-13.7447 -0.2407,-16.9624 -2.2315,-23.8438 -7.4582,-25.7804 -26.3205,-42.2826 -51.9632,-45.4614 -12.6603,-1.5695 -32.6653,1.6293 -45.4199,7.2625 -3.6132,1.5959 -3.7505,1.5763 -6.7678,-0.9626 -6.0307,-5.0745 -8.7665,-2.0288 -14.0167,15.6043 -3.4059,11.4389 -5.5118,15.0121 -8.8477,15.0121 -3.1244,0 -5.1797,-1.5981 -5.1797,-4.0276 0,-0.8952 1.1226,-4.3903 2.4947,-7.7671 3.8979,-9.5927 7.3251,-24.0917 9.4312,-39.8994 1.0623,-7.9731 2.1759,-14.741 2.4748,-15.0399 0.2988,-0.2989 1.0293,0.7565 1.6231,2.3453 4.2362,11.333 11.3426,19.805 19.9762,23.8147 10.6481,4.9455 21.1188,2.7381 31.7344,-6.6901 4.2962,-3.8157 8.3419,-5.7961 25.9281,-12.6924 30.4043,-11.9227 41.6692,-16.6542 52.5023,-22.0519 30.4447,-15.1695 45.8584,-33.066 48.2263,-55.9943 0.3125,-3.0265 0.1947,-6.8515 -0.2618,-8.5 l -0.8301,-2.9974 -2.2772,3.7988 c -1.3978,2.3319 -2.9036,3.6818 -3.8995,3.4959 -1.7129,-0.3196 -4.4062,-7.2803 -5.578,-14.4159 l -0.6768,-4.1212 6.8958,0.4934 c 11.8489,0.8478 19.9419,-4.3563 29.1864,-18.7676 5.2594,-8.199 22.7725,-48.18612 37.1328,-84.78411 23.0767,-58.81235 40.7589,-123.39372 48.3797,-176.69928 3.9956,-27.94769 6.825,-50.30452 6.7709,-53.5 -0.074,-4.3642 -2.3478,-11.22071 -3.8887,-11.72526 -2.6307,-0.86141 -3.8861,7.07529 -8.8939,56.22526 -1.9614,19.25 -4.4486,39.38715 -5.5272,44.74921 -2.0005,9.94521 -8.9733,31.20061 -10.8515,33.07879 -2.3964,2.39645 -2.2167,-1.19742 0.8426,-16.84981 1.7778,-9.09558 3.0554,-17.06815 2.8392,-17.71682 -0.5365,-1.60945 -6.1995,12.21837 -10.7849,26.33442 -2.075,6.3877 -5.8655,20.56679 -8.4234,31.5091 -2.5579,10.94231 -6.2192,26.42011 -8.1362,34.39511 -4.1274,17.17017 -18.0756,63.06726 -19.6017,64.5 -1.9943,1.87233 0.036,-10.44494 5.6044,-34 2.9904,-12.65 7.1008,-28.4 9.1342,-35 4.7045,-15.26978 5.1053,-17.05852 6.3401,-28.28863 1.5501,-14.09854 -0.2072,-16.19112 -4.902,-5.83708 -6.8218,15.04527 -16.8711,48.32256 -21.4789,71.12571 -2.4487,12.11819 -6.797,26.65789 -10.6529,35.62134 -2.0502,4.76573 -3.1654,5.79943 -4.2913,3.97767 -1.0531,-1.70397 2.6157,-17.62185 7.3984,-32.09901 7.2702,-22.00738 10.0604,-43.00594 5.8211,-43.80909 -6.5053,-1.23245 -33.1289,63.5089 -36.7127,89.27496 -0.8413,6.0492 -4.797,18.64469 -10.61,33.78413 -1.0284,2.67821 -2.458,2.08199 -2.458,-1.02509 0,-4.26161 5.3312,-24.97563 10.9407,-42.50963 5.6814,-17.75844 9.0593,-30.10703 9.0593,-33.1179 0,-1.76363 -0.1789,-1.83635 -1.3818,-0.56167 -1.9223,2.03694 -5.2645,12.27063 -8.6941,26.62067 -4.217,17.6445 -10.1973,33.4704 -11.9758,31.69191 -1.3321,-1.33214 2.6778,-31.67843 5.5288,-41.84126 2.79,-9.94511 2.8814,-10.50703 1.7081,-10.50703 -1.0204,0 -2.1048,2.23051 -14.7919,30.42562 -10.2352,22.74609 -14.4103,30.06463 -12.8783,22.57438 0.3937,-1.925 2.473,-9.575 4.6206,-17 4.6852,-16.19837 6.0104,-26 3.5153,-26 -3.5624,0 -14.6161,19.56114 -20.5432,36.35435 -4.7602,13.487 -5.0412,13.55024 -5.0909,1.14565 -0.046,-11.48427 -0.612,-15.5 -2.1844,-15.5 -2.0661,0 -7.614,17.43335 -10.3756,32.60307 -3.0106,16.53802 -4.5107,15.51062 -7.365,-5.04452 -2.6557,-19.12587 -4.0835,-20.91557 -7.6256,-9.55855 -0.9434,3.025 -1.9967,10.45 -2.3407,16.5 -0.769,13.52399 -2.1828,14.40529 -6.4175,4 -9.7097,-23.85807 -11.9739,-23.5411 -13.8149,1.93399 -1.5948,22.0667 -2.2637,23.0452 -5.8563,8.566 -3.4537,-13.91946 -5.5295,-17.99999 -9.1566,-17.99999 -2.9915,0 -4.114,3.77594 -4.5854,15.42439 -0.6686,16.5187 -1.1935,17.157 -4.3133,5.2458 -3.4732,-13.26011 -6.8069,-17.92441 -8.8773,-12.42019 -0.4655,1.2375 -1.8213,8.04249 -3.0129,15.12209 -2.2177,13.1764 -4.1955,19.6279 -6.0172,19.6279 -1.8274,0 -3.8084,-4.2416 -8.0801,-17.3011 -2.5648,-7.8413 -4.6341,-12.6484 -5.3406,-12.407 -0.8387,0.2866 -1.051,6.2011 -0.7781,21.6762 0.3126,17.7324 0.1458,21.2065 -1,20.8291 -0.8551,-0.2817 -2.2119,-4.5841 -3.5873,-11.3751 -4.1641,-20.5607 -7.5407,-22.7999 -10.9818,-7.2826 -2.1505,9.6976 -2.4393,42.805 -0.4436,50.8605 1.9983,8.0666 3.4948,10.0001 7.7399,10.0001 l 3.5565,0 -0.3295,12.9529 c -0.3684,14.4832 -1.1049,16.4071 -5.243,13.6958 -3.131,-2.0516 -5.4732,-2.1075 -6.2249,-0.1487 -0.3165,0.825 -1.2497,1.5 -2.0736,1.5 -1.1661,0 -1.3987,-0.9417 -1.0495,-4.25 0.2467,-2.3375 0.086,-13.7818 -0.3565,-25.4318 -1.3654,-35.927 -5.3657,-62.3861 -13.014,-86.07807 -17.5421,-54.34024 -44.9879,-114.29476 -83.8831,-183.24022 -43.2487,-76.66245 -64.6024,-111.39885 -85.0318,-138.32221 -4.0992,-5.40221 -8.8031,-11.73318 -10.4531,-14.0688 -11.3727,-16.09849 -59.5205,-75.49653 -61.25,-75.56181 -1.8099,-0.0683 -1.5558,1.41586 1.1604,6.776 4.1022,8.09524 24.3365,35.84046 34.932,47.89867 2.3092,2.62798 5.4368,6.61673 6.9503,8.86389 1.5134,2.24716 4.6542,6.35739 6.9795,9.13386 2.3253,2.77646 6.9278,9.00781 10.2278,13.84745 3.3,4.83963 9.5909,13.5544 13.9797,19.36614 20.9316,27.7179 27.484,36.73697 37.4633,51.56681 22.5955,33.57832 36.7835,58.27819 55.4309,96.5 42.7802,87.68684 67.8478,178.49599 76.1239,275.76439 l 1.4689,17.2643 -3.9233,11.4673 c -6.3065,18.4327 -7.5601,19.0072 -5.4644,2.5041 2.1085,-16.6051 2.7916,-37.5858 1.465,-45 -0.6396,-3.575 -2.0209,-12.443 -3.0695,-19.7067 -2.6645,-18.4571 -6.0731,-34.7388 -13.4595,-64.2934 -3.5052,-14.025 -7.0783,-29.25288 -7.9401,-33.83974 -1.635,-8.7017 -7.7854,-22.23085 -11.7285,-25.79925 -1.9869,-1.79818 -2.0822,-1.78802 -3.8637,0.41208 -2.822,3.485 -3.276,12.06602 -2.8626,54.10201 0.209,21.2437 0.073,43.8201 -0.3015,50.1698 -1.1314,19.1694 -5.3878,27.6539 -25.8133,51.4552 -19.4478,22.6619 -19.693,27.1643 -1.6073,29.5151 3.9061,0.5077 9.8548,0.937 13.2193,0.954 l 6.1173,0.031 7.5896,7.9439 c 10.7295,11.2304 11.7326,16.7977 3.5688,19.8067 -6.7532,2.4892 -29.5931,-0.4393 -57.893,-7.4229 -16.3364,-4.0313 -22.1599,-6.5935 -28.7307,-12.6403 -9.0331,-8.3128 -11.963,-15.5462 -16.1657,-39.9105 -1.6558,-9.5993 -3.9557,-19.9794 -5.1108,-23.0667 -4.1336,-11.0482 -14.7653,-19.5373 -26.4928,-21.154 -18.4871,-2.5485 -44.0828,-15.4091 -68.2936,-34.3143 -6.7272,-5.253 -9.4093,-6.7308 -13.3444,-7.3529 -9.1959,-1.4537 -27.3852,-10.4164 -35.9553,-17.717 -6.9192,-5.8942 -4.3661,-6.9472 5.1711,-2.1328 3.3115,1.6716 9.2611,4.1947 13.2215,5.6068 10.6655,3.8029 24.1361,10.7858 43.2007,22.3944 19.6906,11.9897 34.7372,19.8684 43.6901,22.877 3.4704,1.1662 9.9099,4.1318 14.3099,6.5903 23.3779,13.0623 30.3004,15.2993 36.0861,11.6614 3.684,-2.3164 6.841,-8.6186 8.317,-16.6025 1.0378,-5.6144 0.9602,-6.0432 -2.151,-11.8805 -3.8653,-7.2519 -16.0531,-20.3859 -27.1761,-29.2856 -4.4418,-3.5541 -16.176,-11.9315 -26.076,-18.61663 -40.5539,-27.38453 -57.0586,-40.29573 -67.6565,-52.92586 -8.0387,-9.58016 -31.3976,-45.95743 -71.8272,-111.8582 -80.0438,-130.47251 -103.4754,-166.85656 -120.2684,-186.75 -20.4269,-24.19816 -5.5075,1.52634 67.4878,116.36482 67.2213,105.75449 90.4908,143.49471 102.6393,166.46786 5.9607,11.27188 7.3934,15.91732 4.909,15.91732 -1.7407,0 -14.0996,-12.91632 -22.725,-23.75 -12.1438,-15.2529 -13.0331,-12.41375 -3.559,11.36201 3.575,8.97163 6.5,16.55414 6.5,16.85002 0,0.29588 -0.5625,0.5214 -1.25,0.50116 -0.6875,-0.0203 -4.0503,-4.18275 -7.4728,-9.25 -7.1046,-10.51873 -17.2573,-23.06643 -18.0347,-22.28906 -0.2879,0.28794 2.4144,5.3728 6.0052,11.29969 10.1766,16.79733 11.6595,20.27618 8.6432,20.27618 -0.4267,0 -6.0892,-4.76344 -12.5833,-10.58542 -18.9225,-16.9639 -19.7516,-16.28686 -5.8076,4.74218 5.225,7.87983 9.5,14.89313 9.5,15.58511 0,2.69443 -3.0326,0.9413 -12.0946,-6.99187 -11.2202,-9.82254 -14.5531,-12.12896 -15.4441,-10.68738 -0.8322,1.34654 4.1342,9.50023 13.5573,22.25808 15.7391,21.30907 26.0961,42.04289 51.3909,102.87959 24.5793,59.1162 34.5693,79.493 50.8384,103.6966 15.5472,23.1298 27.9071,35.6647 49.3609,50.06 37.9122,25.4387 84.1456,41.2285 156.3912,53.4116 26.7253,4.5068 31.4059,5.0973 30.6449,3.8661 -0.3359,-0.5436 -3.0935,-1.996 -6.1278,-3.2276 -6.0996,-2.4756 -7.4126,-4.5786 -2.2671,-3.631 15.3992,2.8359 32.0589,4.6104 43.25,4.6067 21.6386,-0.01 29.5,-3.8791 29.5,-14.5297 0,-3.8303 -0.9115,-4.2122 -4.4774,-1.8758 -4.7922,3.14 -9.4502,0.2551 -8.1235,-5.0312 0.7998,-3.1864 10.4093,-13.7739 12.0211,-13.2444 0.5939,0.1951 1.3048,3.2239 1.5798,6.7307 l 0.5,6.3759 14,5.631 c 28.0399,11.2781 31.9005,10.3029 12.3158,-3.1109 -4.889,-3.3486 -11.2351,-6.8398 -14.1025,-7.7582 -3.9433,-1.2632 -5.2133,-2.1475 -5.2133,-3.6302 0,-4.9391 16.9609,-10.7904 31.5,-10.8671 6.8496,-0.036 9.3174,0.3796 12.7098,2.141 3.7815,1.9636 4.4111,2.8379 6.1897,8.5962 6.7191,21.754 4.4461,31.5951 -7.2955,31.5862 -2.8072,0 -10.954,-1.1634 -18.104,-2.5807 -18.7915,-3.7248 -26.9435,-3.2198 -39.1761,2.4267 -19.6349,9.0634 -42.461,12.4422 -68.3239,10.1138 z m -52.1173,-125.3145 c 0.8634,-1.0404 0.6167,-2.0081 -1.0531,-4.1309 -2.1218,-2.6975 -2.3849,-2.7576 -9.7551,-2.231 -8.5509,0.6109 -11.0745,1.3502 -11.0745,3.2442 0,3.4064 19.3546,6.1639 21.8827,3.1177 z m -32.3288,-1.7285 c 0.3695,-0.598 0.2836,-1.4583 -0.191,-1.9119 -1.361,-1.3008 -10.6159,-1.6498 -11.0434,-0.4164 -0.8683,2.5052 9.7633,4.7085 11.2344,2.3283 z m -25.7539,-3.1129 c 1.5672,-1.5672 1.5384,-5.3032 -0.05,-6.4857 -0.6875,-0.5118 -3.826,-1.7113 -6.9744,-2.6655 -7.3,-2.2124 -11.7756,-5.8719 -11.7756,-9.6285 0,-1.541 0.8901,-4.7635 1.9781,-7.1611 1.0879,-2.3976 1.9879,-5.6492 2,-7.2258 0.019,-2.5045 0.3062,-2.7806 2.2719,-2.1857 3.8998,1.1802 15.381,1.8347 20.0097,1.1406 4.6429,-0.6962 8.7403,-3.5911 8.7403,-6.175 0,-2.2224 -4.8023,-6.3567 -10.5,-9.0395 -6.3727,-3.0006 -8.495,-3.1308 -5.9944,-0.3677 0.9985,1.1034 1.4936,2.328 1.1002,2.7215 -0.8824,0.8824 -10.8924,-2.6143 -23.9847,-8.3783 -10.7389,-4.7279 -12.6211,-5.1478 -12.6211,-2.8161 0,2.9074 4.838,10.9772 8.9729,14.9668 l 4.1457,4 -3.3093,0.5039 c -3.1009,0.4722 -3.3019,0.7422 -3.1918,4.2887 0.2577,8.3012 13.3153,27.3405 23.355,34.054 2.9398,1.9659 4.2158,2.0651 5.8275,0.4534 z m 35.7079,-6.8065 c 4.0659,-3.3744 -4.1857,-5.3385 -14.3273,-3.4103 -9.4861,1.8036 -11.1806,2.3205 -11.1806,3.4109 0,1.5363 3.3167,1.9128 13.7689,1.563 6.1177,-0.2047 10.8632,-0.8368 11.739,-1.5636 z m -31.2189,-9.0471 c 6.1966,-2.8949 -0.5109,-6.8608 -12.2424,-7.2386 -6.2668,-0.2018 -6.4832,-0.1252 -7.4799,2.6469 -0.8956,2.4909 -0.7104,3.1108 1.4535,4.865 2.0912,1.6953 3.4985,1.9336 8.9798,1.52 3.575,-0.2697 7.7551,-1.0767 9.289,-1.7933 z m 20.711,-26.7612 c 0,-0.8595 -6.3841,-4.1852 -8.0339,-4.1852 -1.9275,0 -0.9018,1.971 1.7839,3.428 3.0249,1.641 6.25,2.0318 6.25,0.7572 z m 2.3496,-12.9624 c -0.4316,-9.4044 -25.3347,-30.6197 -42.2133,-35.9621 l -5.3637,-1.6977 -2.3863,2.7742 c -6.7976,7.9027 1.959,19.5532 22.6523,30.1381 14.3497,7.34 17.5129,8.4735 22.9614,8.2277 4.4105,-0.199 4.497,-0.2682 4.3496,-3.4802 z m -27.4229,-10.2003 c -4.1495,-2.1936 -10.9267,-9.3422 -10.9267,-11.5255 0,-0.8234 0.2745,-1.4971 0.61,-1.4971 1.5484,0 12.3849,6.4025 15.2212,8.9931 5.9001,5.3889 2.6766,8.0373 -4.9045,4.0295 z m -11.9267,5.5123 c 0,-2.9523 -4.7007,-8.5448 -10.5853,-12.5935 -2.3513,-1.6177 -4.5315,-2.9413 -4.8449,-2.9413 -1.2187,0 -0.4778,4.26 1.3713,7.8845 4.1383,8.1117 14.0589,13.5101 14.0589,7.6503 z m 48.725,-8.2097 c 0.5796,-1.7388 -8.2803,-11.8356 -17.0163,-19.3917 -4.5148,-3.905 -8.5571,-7.7171 -8.983,-8.4714 -1.0696,-1.8943 8.2452,1.9534 14.991,6.1924 6.3247,3.9743 14.8361,8.3455 16.2501,8.3455 4.5343,0 -6.3142,-12.277 -19.9223,-22.5455 -11.5744,-8.7339 -25.0445,-15.7088 -25.0445,-12.9682 0,0.2675 1.9947,4.0925 4.4327,8.5 2.438,4.4075 4.1683,8.0137 3.8451,8.0137 -0.3232,0 -5.0196,-2.9505 -10.4365,-6.5567 -5.4169,-3.6061 -10.3064,-6.2739 -10.8655,-5.9283 -0.6195,0.3829 0.222,2.9523 2.1542,6.5774 5.7093,10.7118 23.1599,26.1389 39.87,35.247 8.4006,4.5788 10.0417,5.0357 10.725,2.9858 z m 2.8835,-35.9389 c -12.6453,-11.8121 -37.8817,-29.4157 -47.3588,-33.035 -3.7816,-1.4442 -4.5531,-1.4834 -5.321,-0.2702 -2.9012,4.5837 2.0016,9.8516 16.629,17.8672 5.4683,2.9966 13.5423,7.7887 17.9423,10.6491 22.0223,14.3164 30.7905,16.6352 18.1085,4.7889 z m 10.8011,-5.24 c 1.7425,-2.8194 -17.2554,-23.772 -33.0788,-36.4823 -10.5841,-8.5017 -22.9553,-15.66399 -27.0561,-15.66399 -7.1212,0 -9.1549,3.55069 -5.2084,9.09309 2.7715,3.8922 14.8223,13.1007 35.671,27.2576 21.7843,14.7922 28.1862,18.2001 29.6723,15.7956 z m -3.6106,-22.8176 c 0.4601,-3.1006 -9.16,-16.6385 -18.7315,-26.3597 -12.712,-12.9108 -25.9087,-21.90566 -36.3676,-24.78815 -3.5691,-0.98363 -3.8579,-0.89541 -4.75,1.45102 -1.6003,4.20907 -1.0721,8.06945 1.5267,11.15795 1.3621,1.61879 8.8996,7.37335 16.75,12.78788 7.8504,5.4146 17.9043,12.8794 22.3421,16.5885 8.4112,7.0301 16.2177,12.0335 17.9313,11.4927 0.55,-0.1735 1.1346,-1.2221 1.299,-2.3302 z m 2.201,-22.3685 c 0,-3.0843 -6.77,-13.08741 -16.5,-24.3797 -7.2592,-8.42488 -22.6196,-20.93109 -31.0178,-25.25431 -8.3007,-4.27301 -9.6116,-3.96381 -11.6204,2.74066 -1.9026,6.3506 -0.3005,8.46704 12.9118,17.05696 6.4495,4.19309 13.1841,8.36463 14.9656,9.27009 1.7816,0.90546 6.5066,4.60959 10.5,8.23139 11.6838,10.59651 20.7608,15.98951 20.7608,12.33491 z m -1,-21.3597 c 0,-1.82444 -5.7432,-10.32759 -12.8377,-19.00708 -13.6596,-16.7111 -38.6163,-33.73894 -39.9599,-27.26432 -1.0967,5.28521 3.5324,11.3069 15.6612,20.37269 4.2,3.13935 11.0567,8.79066 15.2371,12.55846 14.2606,12.85333 21.8993,17.50652 21.8993,13.34025 z m 0.2937,-16.22751 c 3.9362,-3.93621 -34.8782,-54.93495 -48.595,-63.84967 -3.9996,-2.59935 -4.9555,-1.0387 -4.997,8.15822 -0.056,12.3019 3.9224,17.97425 17.4453,24.87605 2.8884,1.47418 8.3757,6.36693 14.5,12.929 9.1838,9.84029 18.7038,18.51342 20.321,18.51342 0.3843,0 0.9808,-0.28216 1.3257,-0.62702 z m -2.2789,-24.70137 c -8.9409,-14.75242 -49.4828,-70.67161 -51.2376,-70.67161 -1.6537,0 -0.4083,18.90074 1.4859,22.55187 1.6884,3.25435 5.1857,6.60684 19.0887,18.29847 5.2145,4.38507 11.5327,11.04149 15.6616,16.5 7.7307,10.22023 16.8358,20.13381 17.699,19.27065 0.311,-0.31099 -0.903,-2.98821 -2.6976,-5.94938 z m 22.9845,1.57839 c 0,-1.98629 -5.3674,-19.94696 -8.8875,-29.75 -8.7556,-24.3837 -18.8602,-45.77036 -26.1418,-55.32952 -2.8274,-3.71185 -5.1171,-8.55761 -7.5435,-15.96474 -9.3201,-28.45181 -38.2284,-75.93503 -81.2493,-133.45574 -6.8902,-9.2125 -12.8988,-16.75 -13.3524,-16.75 -1.5373,0 -0.7877,5.47464 1.5162,11.07507 1.2615,3.06628 5.6928,10.49128 9.8473,16.5 4.1546,6.00871 8.6938,13.18758 10.0872,15.95304 1.3933,2.76546 5.6365,9.06546 9.4293,14 24.8543,32.33618 39.3983,58.36634 76.2516,136.47189 9.9912,21.175 20.241,42.8875 22.7774,48.25 2.5364,5.3625 5.2089,9.75 5.9389,9.75 0.73,0 1.327,-0.3375 1.3266,-0.75 z m -316.9993,-3.12768 c 0,-1.00812 -8.1277,-11.0198 -48.079,-59.2233 -78.5752,-94.80556 -125.5244,-152.54875 -148.921,-183.15889 -9.9081,-12.96298 -14.0825,-16.81798 -12.442,-11.49013 2.394,7.77502 19.8973,39.67532 29.7417,54.20521 19.1009,28.19196 59.6084,78.11353 96.5958,119.04479 30.8809,34.17369 66.315,69.56416 79.0771,78.97976 3.798,2.80208 4.0274,2.89565 4.0274,1.64256 z m 284.6968,-28.71113 c 0.4533,-1.36175 -19.6792,-31.62859 -29.9064,-44.96058 -10.2214,-13.32454 -14.4473,-18.09053 -15.3012,-17.25657 -1.5115,1.47627 3.7643,13.5114 9.9469,22.6907 6.6693,9.90205 29.0184,39.03211 30.968,40.36401 1.4512,0.99147 3.8388,0.52561 4.2927,-0.83756 z m -11.0749,-35.16853 c -11.0964,-22.0943 -23.5876,-41.48588 -33.9744,-52.74266 -4.9881,-5.40601 -6.7353,-6.73377 -7.6724,-5.83086 -2.9433,2.83593 2.3315,15.00959 12.1209,27.97398 7.8594,10.40832 33.1226,40.47166 33.6046,39.98964 0.2333,-0.23333 -1.6021,-4.45887 -4.0787,-9.3901 z m -25.6732,-56.99266 c -1.6885,-4.6347 -5.731,-11.89535 -18.6309,-33.46292 -12.0665,-20.17417 -13.8009,-22.63729 -15.056,-21.38217 -1.0084,1.00837 5.6455,19.39668 11.2518,31.09509 4.3737,9.12625 6.5506,12.32014 12.7797,18.75 7.9194,8.17456 11.4845,10.02075 9.6554,5 z m -90.306,-159.7612 c 0.3416,-0.89032 -0.9117,-3.33143 -3.0505,-5.94159 -4.2561,-5.19406 -4.1689,-5.17518 -28.2044,-6.10546 l -16.1123,-0.62361 -2.235,3.61632 c -1.2292,1.98897 -2.0032,4.22036 -1.7199,4.95864 0.7671,1.99892 4.1617,2.45101 27.1291,3.61302 11.5223,0.58296 21.1598,1.27007 21.4167,1.52691 0.9224,0.92238 2.207,0.43918 2.7763,-1.04423 z m 52.8195,0.34649 c 1.6781,-0.76459 2.8709,-2.3964 3.4721,-4.75 3.4937,-13.67602 2.6707,-12.5503 21.8633,-29.90784 5.0613,-4.5774 9.2024,-8.63338 9.2024,-9.01328 0,-0.37991 -4.1589,-2.91303 -9.2421,-5.62916 -7.4422,-3.97661 -10.2175,-4.94782 -14.25,-4.98671 -7.1588,-0.0691 -10.1845,2.4862 -16.0728,13.57388 -6.8525,12.90338 -12.6903,18.97613 -23.0729,24.00159 -5.3952,2.61145 -8.1294,4.46522 -7.6903,5.21415 0.3746,0.63914 2.653,3.74958 5.0631,6.91208 l 4.3819,5.75 11.8945,0 c 6.9212,0 12.9633,-0.48698 14.4508,-1.16471 z m 24.9235,-11.15296 c 7.2129,-4.57471 14.7847,-9.32583 16.8262,-10.55803 4.9235,-2.97156 9.1789,-8.50079 12.9386,-16.81135 3.3978,-7.51056 4.5943,-8.76965 6.6848,-7.03467 1.0319,0.85642 1.2634,2.69712 0.8761,6.96804 -0.5256,5.7963 -0.5219,5.80603 2.7591,7.17689 6.2363,2.60572 5.4773,5.91808 -1.5729,6.8637 -4.0783,0.54702 -14.8976,6.8675 -14.8976,8.70298 0,1.46318 6.843,4.65554 13.8982,6.48373 8.0866,2.09543 22.3729,2.17252 29.2786,0.15798 5.9405,-1.73295 13.8232,-6.44393 13.8232,-8.2612 0,-0.66401 -2.2368,-1.49037 -5.1002,-1.88418 -3.5483,-0.48802 -5.7331,-1.42939 -7.1803,-3.09384 -1.1441,-1.31581 -2.6881,-2.39238 -3.4312,-2.39238 -3.4657,0 -1.9387,-8.73056 2.0107,-11.4969 3.1802,-2.22749 9.9087,-1.91417 13.1188,0.6109 3.5779,2.8144 4.1483,1.90926 1.7436,-2.76709 -5.1228,-9.96206 -17.6004,-15.38147 -24.7016,-10.72862 -3.4039,2.23036 -5.8253,0.32258 -4.9056,-3.86501 0.5855,-2.66582 -0.1046,-3.66508 -7.7055,-11.15821 -10.2421,-10.09669 -28.7866,-22.68735 -44.0307,-29.89421 -15.2594,-7.2141 -28.495,-15.56922 -33.8904,-21.39371 -2.4492,-2.64393 -7.5641,-9.84917 -11.3665,-16.01164 -8.5775,-13.90158 -13.4278,-19.95998 -8.218,-10.26505 9.9248,18.46933 12.6569,24.26977 12.6569,26.87189 0,1.56937 0.7078,4.54727 1.5728,6.61755 1.9095,4.57011 1.1817,8.4801 -1.5784,8.4801 -1.3147,0 -2.4678,-1.1974 -3.4753,-3.60857 l -1.5078,-3.60856 -3.5404,3.10856 c -1.9473,1.70972 -3.8656,3.10857 -4.263,3.10857 -1.3274,0 -35.596,-20.77803 -43.9997,-26.67828 -10.87,-7.63185 -16.2028,-10.94456 -18.9582,-11.77686 -6.5676,-1.98381 2.2449,5.3823 19.7782,16.53196 34.58,21.99 48.0908,33.58292 61.0957,52.42318 l 7.593,11 8.608,-0.34153 c 6.183,-0.24531 10.0964,0.14083 13.8915,1.3707 7.3426,2.37948 15.5546,7.17403 16.2978,9.51538 0.4581,1.44359 1.2158,1.81034 2.878,1.39315 1.4304,-0.35902 2.7547,0.0343 3.6181,1.07471 1.1617,1.39972 1.0841,2.15693 -0.5279,5.1501 -2.2105,4.10477 -10.816,12.20961 -18.0978,17.04508 -5.0009,3.3208 -9.1504,8.74566 -12.6793,16.57634 -0.9379,2.08116 -1.7053,3.99366 -1.7053,4.25 0,1.45743 3.625,-0.39246 15.3857,-7.8516 z m 72.6471,-21.49718 c -1.2612,-0.43074 -5.0328,1.67023 -5.0328,2.80352 0,0.50507 1.3398,0.15174 2.9773,-0.78518 1.6376,-0.93692 2.5625,-1.84517 2.0555,-2.01834 z m -15.4739,-35.65335 c 1.6745,-1.2665 1.7119,-1.47256 0.2729,-1.5 -2.5666,-0.0489 -4.883,1.07639 -4.267,2.07298 0.7783,1.25939 1.7571,1.11897 3.9941,-0.57298 z m 0.8347,-10.65999 c 9.4744,-8.86432 11.2197,-11.44253 12.1959,-18.01684 0.7899,-5.31946 2.9242,-8.97881 4.814,-8.25365 3.5525,1.36325 2.2201,12.72742 -2.4778,21.13353 -1.6091,2.87917 -2.9257,5.65497 -2.9257,6.16844 0,1.34541 6.7867,5.34657 7.9008,4.658 2.5902,-1.60079 3.0898,-11.21013 2.0993,-40.3791 -1.5898,-46.82166 -2.9958,-58.39111 -10.1086,-83.18219 -3.1769,-11.07302 -4.3457,-13.38322 -5.2364,-10.35066 -1.9235,6.54851 -2.4469,13.87015 -1.6044,22.44302 0.5084,5.1742 1.3948,15.93264 1.9696,23.90764 0.5748,7.975 1.4219,18.48666 1.8825,23.35925 0.8025,8.49129 0.187,15.00405 -1.575,16.66595 -0.4553,0.42937 -1.7068,0.93897 -2.7811,1.13244 -1.3502,0.24316 -2.2765,1.65026 -3,4.55749 -1.3181,5.29627 -2.9075,7.06022 -4.8838,5.42006 -0.782,-0.64902 -1.6966,-2.55381 -2.0324,-4.23286 -0.4446,-2.22276 -1.0891,-2.95736 -2.3705,-2.70175 -1.4782,0.29485 -1.76,1.46779 -1.76,7.32524 0,6.10856 -0.2587,7.08784 -2.0842,7.88994 -1.1464,0.50366 -2.4964,1.84049 -3,2.97071 -0.5391,1.2097 -2.2907,2.33134 -4.2584,2.72689 -4.0235,0.8088 -4.6222,1.35458 -6.5491,5.97012 l -1.496,3.58347 8.6939,7.58671 c 4.7816,4.17268 8.9652,7.62262 9.2968,7.66652 0.3317,0.0439 4.5125,-3.57786 9.2906,-8.04837 z m 133.6064,650.37668 c -2.8036,-1.4005 -3.5639,-2.4156 -3.821,-5.1017 -0.275,-2.8718 0.3378,-3.9847 4.2675,-7.75 2.5238,-2.4182 5.1882,-4.3967 5.921,-4.3967 1.9324,0 9.2878,5.5443 11.1736,8.4223 0.8872,1.3542 1.466,3.5006 1.286,4.7699 -0.4189,2.9553 -5.979,5.8047 -11.3271,5.8047 -2.2,0 -5.575,-0.7868 -7.5,-1.7485 z m 12.532,-4.3491 c 0.7449,-2.3471 -0.7707,-4.4879 -2.4449,-3.4532 -0.5979,0.3696 -1.0871,1.7704 -1.0871,3.1129 0,3.0241 2.6006,3.2747 3.532,0.3403 z m -47.9726,-145.0264 c -2.1674,-0.5065 -4.1282,-1.1085 -4.3574,-1.3376 -0.2291,-0.2292 0.9967,-2.887 2.7242,-5.9063 6.175,-10.7928 16.5849,-18.0894 37.9054,-26.569 13.7264,-5.4592 19.6149,-8.4788 25.9076,-13.2851 5.4329,-4.1495 9.5515,-5.6133 33.7608,-11.9987 9.4881,-2.5025 14.0933,-3.1767 22,-3.2207 l 10,-0.056 6.8218,4.1552 c 3.752,2.2853 7.02,4.3533 7.2621,4.5954 0.6764,0.6764 -3.5591,9.7494 -4.5512,9.7494 -0.4806,0 -1.1635,-1.3189 -1.5175,-2.9309 -0.3541,-1.612 -1.3083,-3.4824 -2.1205,-4.1564 -1.2106,-1.0048 -2.0633,-0.6569 -4.7333,1.9309 -5.2901,5.1274 -6.7105,4.42 -8.2194,-4.0936 -0.3655,-2.0625 -1.0703,-3.75 -1.5663,-3.75 -0.4959,0 -1.8855,2.025 -3.088,4.5 -2.1093,4.3417 -3.9958,5.5904 -5.2877,3.5 -1.0423,-1.6865 -3.471,-1.1239 -7.101,1.6449 -2.9506,2.2505 -3.8303,2.4796 -5.9001,1.5366 -2.0494,-0.9338 -2.8706,-0.7426 -5.2156,1.2144 -6.4773,5.4055 -8.8582,6.0011 -28.0668,7.0211 -6.9374,0.3684 -8.5874,1.3842 -13.2665,8.1666 -3.5865,5.1989 -12.9168,9.7054 -19.1131,9.2316 -3.8549,-0.2947 -4.1943,-0.1064 -5.2297,2.9026 -0.6089,1.7698 -1.814,3.923 -2.6779,4.785 -1.4262,1.4231 -1.8197,1.3712 -4.2794,-0.5635 -1.4898,-1.1719 -3.3705,-1.8768 -4.1793,-1.5664 -1.9163,0.7354 -1.8859,4.5107 0.053,6.6538 4.3407,4.7964 -6.4089,10.0797 -15.9647,7.8463 z m -445.1709,-481.303 c -0.9223,-2.40347 2.798,-8.79028 8.0891,-13.88691 3.3484,-3.2253 8.6888,-6.6284 16.0224,-10.21009 14.4237,-7.04444 21.5215,-8.82745 32.6865,-8.21097 l 8.6864,0.47963 3.1202,-3.88269 c 1.7161,-2.13548 5.4572,-5.06122 8.3136,-6.50165 3.3362,-1.68242 10.2744,-7.56289 19.4023,-16.44445 16.0793,-15.64539 27.291,-23.24833 27.291,-18.50667 0,0.77341 -2.1924,2.98133 -4.8721,4.90648 -4.3495,3.12479 -19.5275,21.89852 -23.0257,28.48053 -0.6703,1.26127 -2.341,7.71961 -3.7126,14.35188 -2.7118,13.11239 -5.6502,21.99637 -7.8902,23.85541 -1.1164,0.92657 -4.3024,0.48207 -14.7122,-2.05264 -11.3306,-2.75893 -15.2014,-3.24643 -26.2872,-3.31068 -15.1201,-0.0876 -19.3825,0.9564 -32.0131,7.84134 -8.9993,4.90555 -10.2668,5.25861 -11.0984,3.09148 z m 28.4731,-12.2531 c 8.7699,-2.34411 10.7648,-2.52235 22.1384,-1.97803 6.875,0.32902 14.975,1.28204 18,2.11781 11.254,3.10935 14,1.80383 14,-6.65582 0,-2.79889 1.0839,-6.55231 3.0644,-10.6119 3.6079,-7.39507 3.5147,-9.56321 -0.4304,-10.01575 -5.1299,-0.58843 -8.4407,1.74782 -14.6335,10.32608 -5.7357,7.94515 -10.4743,12.3602 -11.8209,11.01361 -0.3558,-0.3558 0.3582,-2.39341 1.5867,-4.52802 1.2286,-2.13461 2.2337,-4.35445 2.2337,-4.93299 0,-1.76938 -13.1023,-1.19755 -21.59,0.94228 -10.394,2.62038 -22.9153,8.85648 -29.2891,14.58703 -7.0935,6.37766 -6.769,7.94837 0.9907,4.79532 3.3614,-1.36586 10.4489,-3.64269 15.75,-5.05962 z m -55.9173,-76.91551 c -4.876,-3.67878 -10.8798,-6.12628 -18.1601,-7.40305 -8.5539,-1.50014 -9.7842,-1.92901 -9.7842,-3.41073 0,-2.27948 3.5412,-4.56173 8.5763,-5.52735 3.9173,-0.75125 6.65,-0.53205 13.3691,1.07238 10.0131,2.39099 12.848,2.02844 21.9145,-2.80265 6.0191,-3.20723 7.1681,-3.48411 12.2854,-2.96034 6.458,0.66099 10.8547,2.37173 10.8547,4.22349 0,1.61742 -1.5656,2.06148 -12,3.40365 -14.5161,1.86718 -18.3875,3.72315 -19.518,9.35691 -1.5622,7.78557 -2.1588,8.10593 -7.5377,4.04769 z m 0.8753,-6.55105 c -0.4884,-3.28565 -5.0568,-6.07062 -10.875,-6.62968 -6.4255,-0.61741 -6.5458,1.43817 -0.194,3.31365 2.2811,0.67352 5.4079,2.16457 6.9484,3.31346 3.5831,2.67213 4.5175,2.67271 4.1206,0.003 z m 79.7152,3.04608 c -1.9441,-1.70698 -3.5348,-3.57096 -3.5348,-4.14219 0,-0.57123 2.025,-3.40888 4.5,-6.3059 2.475,-2.89702 4.5,-6.02869 4.5,-6.95928 0,-2.18724 -9.8197,-20.57123 -16.8196,-31.48904 -7.8346,-12.21944 -13.9116,-19.64604 -17.1859,-21.00229 -1.5679,-0.64945 -3.0955,-1.81853 -3.3946,-2.59795 -0.5647,-1.47173 0.9176,-6.39976 1.925,-6.39976 4.3813,0 28.7498,24.86831 43.8299,44.7289 5.6886,7.49189 7.6452,11.88653 7.6452,17.17159 0,2.9113 0.465,4.10281 1.75,4.4844 0.9625,0.28582 10.3,1.90498 20.75,3.59812 10.45,1.69315 20.4344,3.54024 22.1875,4.10465 3.4987,1.12636 8.3125,4.55681 8.3125,5.92365 0,1.8678 -9.3685,2.08911 -25.5579,0.60376 -20.9502,-1.92215 -36.7282,-1.92962 -41.3142,-0.0195 -4.2224,1.75863 -3.4608,1.92905 -7.5931,-1.69911 z m 8.1495,-3.98562 c 2.3736,-1.14906 4.3157,-2.2625 4.3157,-2.47432 0,-0.9846 -6.0347,-3.36038 -7.3012,-2.87438 -2.7468,1.05404 -4.4252,7.43791 -1.9555,7.43791 0.3439,0 2.5673,-0.94014 4.941,-2.08921 z m 38.0839,0.89373 c -0.5191,-1.55715 -4.5181,-2.62173 -13.7682,-3.66518 -8.1478,-0.91912 -10,-0.65259 -10,1.43906 0,2.04421 5.4606,3.23061 15.3333,3.33141 6.4395,0.0657 8.7254,-0.23379 8.4349,-1.10529 z m -27.7682,-6.30452 c 0,-0.83333 -0.8889,-1.5 -2,-1.5 -2.2133,0 -2.7096,1.547 -0.75,2.33772 2.1761,0.87807 2.75,0.70323 2.75,-0.83772 z m -0.3988,-8.90305 c 1.2515,-3.26127 -5.8321,-13.98963 -21.1923,-32.09695 -10.8474,-12.78727 -16.0785,-18.1637 -16.8866,-17.35559 -0.2743,0.27424 1.5417,3.39143 4.0355,6.9271 2.4938,3.53567 8.2259,12.92863 12.7382,20.87324 4.5122,7.94461 10.0394,16.38211 12.2826,18.75 4.1248,4.35399 7.9886,5.59682 9.0226,2.9022 z M 3598.7297,466.9689 c -2.5476,-2.81696 -7.2267,-5.10097 -17.2045,-8.39803 -6.296,-2.08045 -8.2256,-3.13515 -7.9932,-4.36903 0.2327,-1.23557 2.1498,-1.84199 7.9759,-2.52293 6.7381,-0.78753 8.6555,-0.61151 15.7874,1.44928 l 8.1178,2.34568 9.9998,-5.19928 c 9.0486,-4.70471 10.6173,-5.19928 16.491,-5.19928 6.0498,0 6.4226,0.1282 5.4821,1.88541 -1.603,2.99528 -11.7265,9.19657 -18.2255,11.16432 -7.0298,2.12843 -8.8358,3.43101 -8.8358,6.37271 0,3.14634 -1.89,4.57756 -6.045,4.57756 -2.4368,0 -4.2765,-0.69821 -5.55,-2.10641 z m -1.6545,-8.14359 c -0.2289,-0.6875 -1.2646,-1.4144 -2.3015,-1.61534 -1.6311,-0.31608 -1.7046,-0.14754 -0.5447,1.25 1.5862,1.91126 3.4401,2.14923 2.8462,0.36534 z m 30.7777,-6.77341 c 2.4161,-2.00517 0.4815,-3.23779 -4.2455,-2.70499 -4.8685,0.54875 -6.9214,1.8859 -5.7659,3.75555 0.8974,1.45204 7.8787,0.71946 10.0114,-1.05056 z m 145.9718,-37.68394 c -16.1303,-17.07304 -19.8127,-21.29265 -18.5817,-21.29265 1.6385,0 16.2049,14.20565 22.6727,22.11121 3.0998,3.78884 6.2141,6.88879 6.9208,6.88879 2.1818,0 20.0308,-9.31913 18.6992,-9.76299 -0.6894,-0.22982 -2.6611,0.0728 -4.3815,0.67257 -1.7203,0.59973 -5.305,1.09042 -7.9659,1.09042 -4.7661,0 -4.9758,-0.13736 -14.1224,-9.25 -8.3647,-8.33368 -20.5614,-17.75 -22.9911,-17.75 -0.5155,0 -1.1714,0.89494 -1.4574,1.98875 -0.7435,2.84329 -2.2927,1.43842 -2.2927,-2.07915 0,-1.68792 0.633,-3.21528 1.4649,-3.53449 2.7144,-1.04163 12.4898,5.71885 23.4361,16.208 7.3148,7.00932 11.8766,10.62241 13.9304,11.03316 4.1515,0.83031 11.9122,-1.14913 22.5911,-5.76205 6.652,-2.87348 10.2781,-3.85422 14.25,-3.85422 4.5892,0 5.3275,0.26642 5.3275,1.92245 0,1.33853 -1.139,2.292 -3.75,3.13914 -2.0625,0.66918 -11.625,5.19654 -21.25,10.0608 -9.625,4.86425 -18.4,9.06213 -19.5,9.32862 -1.541,0.37332 -4.5244,-2.18746 -13,-11.15836 z M 3656.2553,396.9929 c -7.9892,-6.00585 -12.3069,-7.9459 -22.1907,-9.97088 -8.3719,-1.71523 -11.7399,-3.14747 -11.7399,-4.99243 0,-0.44046 1.1579,-2.17686 2.573,-3.85867 3.2588,-3.87285 8.9554,-5.46278 16.4544,-4.59244 5.1441,0.59705 7.5027,1.61864 13.2343,5.73241 1.5243,1.09403 2.2198,0.76466 5.1611,-2.44422 1.8697,-2.03976 4.677,-3.98977 6.2383,-4.33336 1.5614,-0.3436 4.8639,-1.27724 7.3389,-2.07475 2.475,-0.79752 7.04,-1.71915 10.1445,-2.04807 4.869,-0.51587 5.7801,-0.33956 6.6318,1.28339 2.1074,4.01559 -1.8962,8.51431 -8.6928,9.76788 -5.997,1.10611 -9.5135,4.75718 -13.0632,13.56324 -2.2798,5.65566 -3.7529,8.05031 -4.9521,8.05031 -0.9388,0 -4.1507,-1.83709 -7.1376,-4.08241 z m 8.1601,-1.97711 c 0.4035,-0.79226 1.5208,-3.69048 2.483,-6.44048 2.3949,-6.8454 8.1027,-12.5 12.6175,-12.5 3.8794,0 7.8238,-2.25469 5.9598,-3.40668 -1.7056,-1.05411 -20.222,4.47766 -22.4518,6.70745 -1.5093,1.50934 -1.7866,2.75095 -1.2976,5.80942 0.8687,5.43201 -0.6288,5.0636 -8.5773,-2.11019 -6.0761,-5.48389 -7.0211,-5.98982 -10.9861,-5.88169 -12.7762,0.34845 -13.7688,3.28208 -2.1507,6.35648 8.3565,2.21131 13.7342,5.22464 18.8458,10.55999 2.9906,3.12147 4.3188,3.33793 5.5574,0.9057 z"
         style="fill:#000000" />
    </g>
  </g>
</svg>
